<mxfile host="app.diagrams.net" modified="2023-08-04T14:39:30.606Z" agent="Mozilla/5.0 (Windows NT 10.0; Win64; x64; rv:109.0) Gecko/20100101 Firefox/115.0" etag="71Isjx340leGKWlVTuya" version="21.6.6" type="github">
  <diagram name="Strona-1" id="mPwJl4hfflNMHZR2tgoX">
    <mxGraphModel dx="1195" dy="628" grid="1" gridSize="10" guides="1" tooltips="1" connect="1" arrows="1" fold="1" page="1" pageScale="1" pageWidth="10000" pageHeight="10000" math="0" shadow="0">
      <root>
        <mxCell id="0" />
        <mxCell id="1" parent="0" />
        <mxCell id="j2BOxUeTRpazNz8vRKip-2" value="" style="rounded=0;whiteSpace=wrap;html=1;" parent="1" vertex="1">
          <mxGeometry x="850" y="250" width="360" height="130" as="geometry" />
        </mxCell>
        <mxCell id="UXMGxgxn2OHcNiJofj9V-1" value="" style="rounded=0;whiteSpace=wrap;html=1;" vertex="1" parent="1">
          <mxGeometry x="50" y="50" width="230" height="100" as="geometry" />
        </mxCell>
        <mxCell id="UXMGxgxn2OHcNiJofj9V-2" value="&lt;h1 align=&quot;center&quot;&gt;Kluczowe szykany&lt;br&gt;&lt;/h1&gt;" style="text;html=1;strokeColor=none;fillColor=none;spacing=5;spacingTop=-20;whiteSpace=wrap;overflow=hidden;rounded=0;" vertex="1" parent="1">
          <mxGeometry x="70" y="50" width="190" height="70" as="geometry" />
        </mxCell>
        <mxCell id="UXMGxgxn2OHcNiJofj9V-12" value="Waltuh" style="rounded=0;whiteSpace=wrap;html=1;" vertex="1" parent="1">
          <mxGeometry x="60" y="200" width="120" height="60" as="geometry" />
        </mxCell>
        <mxCell id="UXMGxgxn2OHcNiJofj9V-13" value="Lekka urynacja na krzesÅ‚o obrotowe" style="rounded=0;whiteSpace=wrap;html=1;" vertex="1" parent="1">
          <mxGeometry x="60" y="270" width="120" height="60" as="geometry" />
        </mxCell>
        <mxCell id="UXMGxgxn2OHcNiJofj9V-18" value="" style="shape=stencil(7VrLchw3DPyavbIIgg/w7Dj/4SrL0VYUySUrr78PmK2ZHTZ3W/ExVb5JO8CQBBqNB+ekH749fvr6cErx29vry68Pf54/vz2e9KdTSufnx4fX85v/ddKPJ/3w5eX14ZfXl9+fP1/+//ppSI6/fnv5Y7zhr4ueSah9aKX49+WXFJL9+8PPF/mn8/NBvmmICvKa78vXGkoD+aJEPoYaQd7I+0sOrU7yGpTsP1uoZZLPITUin0KTSb6ETN6vLYxnB/kaeiXybo75vL5BuS/vj8tsf4n0wH6+YrOCe4zsKMXQQSGHTBTEQpxNJDVU4mMpy5YsWCIKGiqASEIkh/YjxnkFh0XuRCGGMrvN/SZkhR4ihE0PQhZoGwp2mLrjCa5bkNnN6vspJG5CBvkejMgX3E9Wijt32Xze3CgoPEpmexYJSjBRNhbZ5UuQyOTTvJ9iG3H8t/1U2YjjjnydAVRzqASiFWmxtqBkPxXtWTvdj79tlm8SOsGbbavv8nmL0jt41vm8rfCQjBiSjQPCQ1JgBY8hHvQdmDGGTCAtHmMzhszJm1GjP55zge1keY98MyjwqNSMsLC2BeptBffDbFbzNVl+yphfzV9BzJodZ4oKnTGFU8W8QucZpy6O6ztYbmPbU7x+j4IDQdKyJRJtDn6oKmwn8NsKSxJ0P1B+j5gE3dNGFDzedVEojGFsgXfbzHBXYbaSo7UxTuohZVRI/AwGVirbmvesZAkVGG1fWe6gwKoXr09VUSFxaEAB6Qosplvd3ndUYNBwv5blDIQEmi285OmXHNoUs7nt+eW2QsMqePxCFLpsXcEhHjqrjxazjhAlBU/3Dczg8zWNWKn3kEFBKfNJ9BgFYsp8iRoMqK/RBNETdlPd3vMc5Gk/FoVrxdp52IEk9tGwLQqFKcj2+KDArOQsAKWAK7DaxEsjwPdQIHxfl2rVFVhm92ItL1tieddzFoLJaN9WExKTK2TGxhoEzuAJgq3gQa2ooKwFcKIDhbqljHu9OSbqSvOuZ5TWUaGwzB6XeKgb89wrBbIsZ2DxoAvP8MJ7LQWGH7iCAVqN+qGt4DNaCvgZ1ohTXjDFBd6NdZMRi40RcQx8hv3GgT3vDnoUl6D4zlieDGLiAdGWFWgBtFIfbxKHwsICkUXQ3jQfEwQhVz80Ul8LkVup5UWBYWPxXC+UBUapkFGhEbN65q8Qcpkm3lHjwaH5CMr7NgVoSBB26Irt/eiCWIn1o77/Ud//b+r71hdoFNqzjx2DH9rm+9uFa8R5lwcQuwfwx1gaJ8pLlhaaUTrOGZ5eFIxXJxJRgTFfaUv9o3QIlzsO613hnduDJGilQtCqDj7gVqGsoXEbtR/7LILWlBdPG63WZe9gjljik766kACNuBtzOzaLrjh7N9lq69tewPhsvNBYejKPcAa8hJTkFCJk/4L2cY5iFCbb23b5tN0O3JRfRrODx0kcRLw7GLNrKg+ZbczGiX/j5v3j7J1wy9KmF6PTjCU1l0KHexGrvHE3QWLM9z/Lj7sPKg89TFaKt4jpQL2aJ3iTkEDeI4INxnG8qolTBOIz8VmP4kgiFRoveesLdnmldz0V7ekWY12nobxTGOMfiThekEInHpKxsRClt8Kyt5i7gtB87D7D5oiG/Gqjxi8mBKuiQtO9Gl5kKHVBzljXpS2IbqfihPdPQkO4dOwQIi+uy1asX+VZDnOGBftEWot7Bsq4H9Yt294AHeTZ+/c647AfkmIs44SAn9flG+6f3eZdS+KrPGs9XB5uziKd+Nn+lcUVDyxebLkPFtqH+3kN388qP8tof+H7X0Y6PGWPigc/q6Hn/c7Pdt6X9z+u3wh9OT89XT4xOj7Hb4r8p8v3SPrxHw==);lineShape=1;" vertex="1" parent="1">
          <mxGeometry x="21.445439776123067" y="98.75073175107218" width="40.12276552605822" height="138.61448398321852" as="geometry" />
        </mxCell>
        <mxCell id="UXMGxgxn2OHcNiJofj9V-19" value="" style="shape=stencil(lVnLchw3DPyavaIAvnl2nP9wleVIFUVyyXIS/717ssXREJxtR7fVCBgSQANoYC7xw7f7T1/vLkG/vb48/3n3z8Pn1/tL/O0SwsPT/d3Lwyt+XeLHS/zw5fnl7o+X5+9Pn69/f/20SW6//nr+e3vDv1c9U+lh0wr64/pEpel/D36/yj8+PB3lo6Q8yUcJhcgnyXGSz9IalS86yXfRTu/T0iRvQRq7UJAyG2xVArPYxGaLQxC12wpdis3yVSzelm+iswUxSCAuKt6AyA3Iksskn0wqeX+WMNubsvTM5NMcsdRpiPG2PiMCmKq35avofJ9cpFF/OoQWFWUBVm9wiaIcQnm2uMAmppAHhneFNoJ4rlClzVeqOwpPFbasnU+oUSIJQkgSZhTVTKOAMFR3QpWUbitEoMyd0CWSE2L2NjQTJTakJXANkSGZmZL0OdValEqg9IbkXQH1iZSjnAfUdgW4lUAD2DRndBn14FyhS14UaPogTOYVjFwJPgnV25CJQm0eGohDJWityedDgxtIPgD9cXYrrMokcLiSKxo4sxAsIa46G4186ESh60D/Ed6kzPQo2aEVVhEv9TI66wGtLKc7Kt/cazfwMYU+ev2uUHldUl3w3Ufwb93JVftuNOVWqzfHkYTowWOjJ2kkIeDFMic1zmQn1KVsdNRnUmdQ3XUOBNzAWFUxKe6EPqrneZ3py5U6bUG5ia0KrEujqoTlSsStOY0LHBQiu1L01BNeosQE8O9ewUgc8kJWEbjEqFIaDecAjUqggXofzCsYaxBloH9XQNtjkW4jhQ8KhZQNdBRXvqFQGVpN+nKlTmwocUnRwptc8hQacWCdHQre6ErBB4WwZBzrirBhhbexFA0nCVSYgvrJZ8s4htY2oLZPJsqZK8DUqz+CDT+Aq+MCUMgMfWnBd6PYQMo5bgyFyDIojiJxCHXhCm1JOTqfpFFVDgq0MBXPybaEYF56r0KBiQ4biZIHkBGf1HGQ3/MmF5akNhq4honExUHHk3OF7nMUr8iMYpWFJmY6EICTBXdCHLP1ucJCE/GEjYobx5uxVHmjhltdJauFDrsw0Yo/oTOaqH4dABsSo4lLG22JFlcoVDcQ8AUC4uqnoMYZVhjt4MASGa/EsOrRqnTHAobV3qcQB9T+J3HNSNFFIbIiYL7MbClF3Pq2Vjmyb1L5tnnXwbsMxn8+USe/Rmg7lT0f8rtn69swSIzelktLxrF9YDDfgTA2GbmSVe9WZBxdtqRlMEuUMJl5KlADH5AHYdu3OX144cbCLrr9UqEXWrgMwMvm7+AXjqAebLA0z4qBdSXprH7huDV5UmCWlUbixGeZKbfMIP5UTz+T0UQz78+486Yb/nTELYYxz52nmS/AiHhjpcWv3nBDSm4lzvexQke3OraXh5V4ZeTCV2u+cq+DMe5wo92j+qKVaL5nv4cxXhP9ztAotUsDWG/ibNO77G31F5tzV3mUk2tf/5VywCK5OnH2WaF68qQUxE00eHHGCQZiD+JsSTOGscPdWYVSP4fDNaSCQD57ebbRefdXr1/K48fbJ7YvD4+P1y90x//7T3J4dP2cFz/+BA==);lineShape=1;" vertex="1" parent="1">
          <mxGeometry x="20.883312925469" y="221.55257554199466" width="41.07868718133413" height="104.95269709844422" as="geometry" />
        </mxCell>
        <mxCell id="UXMGxgxn2OHcNiJofj9V-20" value="&lt;div&gt;Finger&lt;/div&gt;" style="rounded=0;whiteSpace=wrap;html=1;" vertex="1" parent="1">
          <mxGeometry x="60" y="340" width="120" height="60" as="geometry" />
        </mxCell>
        <mxCell id="UXMGxgxn2OHcNiJofj9V-21" value="" style="shape=stencil(7VnJUlsxEPwaX6e0L2dC/oMqTHCFYArI9vcZxSXz1HqvXaRy5GbsaaTZelrSzl+93N887XfOvLw+H7/ufx5uX+93/tPOucPj/f758Kqfdv5656/ujs/7L8/H74+3p7+fbppl+/Tt+KP9h18nnMtSU0M58/v0jZUc/37x+WT/cHhc2kcJdbCvUiuxt+L9YN++ydsAW8TFEVAlewIIUvMA8FV8IgArcXQh6AplG1AklcE+GXHEPkkaXc5GDPEg9oif7Qu1T/3Xbl9CD/KqfZbgRvsqxm7bVylmTLETx1IWJYYRcK6S9aLwmAEFRJIyTUGxIyDQKvJBAgBsL/R1gJbAuKVSJJMVQhQLUVWnCSA6MWOai5VCthSrpNEHrYtsSF1kLNQcaTO3n6FSvViypbbjsTSyFRvICgHpJWntsd7RZhu7Wb1yzOnUd3wGJAkMMG8pSuUASJwCaP97CUAYQSIpDQU4AHgpjq+QEGBI4poPY7UmJ56URosSACyl4ZYHgwDHfMgSAWCksChp5QQEJJIHpV0g4ksAJ3ZietaieSKy5jSh1lzFwpY0cYQqS562pOOFJE55DgFKngwQJI+1pD3Nxk9VXhpLQ3mkkrBao/MPaKPQ+q6lR3HBlYyNdX7YsTZ0JlritbK7GcOkkWYrFCNhZAGNtGHUl6SOqa68RzWKMSMgk9rIHmeW5pINak1sLggIjDYqSpPKpYY2dbXoAyXXhEymANZByr0RtuT4lmKPySJxTDsoIMEKpquJLR/S6IMKLCZntCOhR7UcWZSagEwIiKSBGpMZBAQ+qLEfzpN4q1pBkqnTllVrnrakRwemTvIk+viAaIAp04U5nafScPQkoD0NUdJqZZNdwwraWxuICiY39YP+CybuzaR0A6/WMp3gNPesH5KUik5T1ogTLzlJxOnWogCwkkgtKQDJ2EhmYiOJm1qUKqz3AjRxOLKSRJa4Oo0s3xXR+gQKyHw6kwpZQSdagrGb+6zfWqHAASLwCaREBkcUS+VM+xnkfaH98CHv/13ecwDM6Q95/z/kfZmcdlR8l+nqpGWG9EOdbhE00IHJ+2kF7UF2T6HUG6GnA02c+pBghdQPj1tRggmkXGiYEjjz3OI4kNiM810dLa/ICC/FSawreTp2OWMxD9XQPISIEu6CuvcZ81BzvxrdvCSDe7tKRaKteP2zOKltnOQmr5W+WVPjjKuJXj36SS753rPrG+qidjGlmbY3KDQu1MV8cM1dDG3YgwJ9O0Gt5wxvWWKlrTOJ7sDvuqfrBl868a/H83wrtLh9d4SPbBQ/etBiwDKmG4Yq7SS79YAQ8YGCHffa+8Vob/r7wLq9wxAZer+i9nA6NLTitKTBX0M7xgW83Tf0mkHtoSR4C2sJxYL2zN+0sn+Wr4lJDdVr7XUiYPxJ/ag9HC4sZZT2wJXB3vP//74HsYv2+uHt9e3u8PBwerxb/o6vdfrV6aXPX/8B);lineShape=1;" vertex="1" parent="1">
          <mxGeometry x="19.28885630692048" y="312.48755595449586" width="36.531200618350496" height="76.62234177964517" as="geometry" />
        </mxCell>
      </root>
    </mxGraphModel>
  </diagram>
</mxfile>
